<svg height="47.174" width="152.373" xmlns="http://www.w3.org/2000/svg"><clipPath id="a"><path d="M0 0h152.373v47.174H0z"/></clipPath><g clip-path="url(#a)" fill="#0d3c2c"><path d="M104.93 24.175h-5.621c-.384.812-4.121 8.826-4.5 9.64h5.619c.376-.814 4.113-8.828 4.5-9.64M94.524 24.175h-5.51c-.382.812-4.117 8.826-4.494 9.64h5.508c.382-.814 4.12-8.828 4.5-9.64M77.936 21.844h4.642c.339-.72 1.9-4.074 2.238-4.793H80.17c-.333.719-1.9 4.073-2.234 4.793M77.508 17.05h-4.649c-.334.72-1.9 4.074-2.234 4.793h4.649zM6.006 23.599h7.639l-2.335 5.009H2.553C2.207 29.352.347 33.344 0 34.083h8.755c-1.128 2.431-1.947 4.189-1.947 4.189-2.478 5.315-.224 8.746 6.4 8.746h13.609c.343-.746 2.2-4.733 2.552-5.475H16.3c-3.2 0-3.8-.7-2.513-3.46 0 0 .781-1.67 1.86-4h17.292c.35-.738 2.216-4.731 2.559-5.475H18.2c.838-1.784 1.663-3.547 2.344-5.009h16.18c.343-.74 2.209-4.732 2.552-5.473H8.555c-.343.74-2.2 4.732-2.55 5.473M152.373 29.284h-10.855c-4.206 0-8.359-1.546-6.7-5.825-.008 0 2.8-6.077 2.906-6.313h-6.893c-.42.892-13.576 29.133-13.994 30.028h6.884c.221-.469 3.629-7.77 7.2-15.42 1.51 1.86 4.21 3.008 8.04 3.008h10.863c.853-1.83 1.717-3.691 2.55-5.478M58.398 17.89h-6.887c-.421.9-9.5 20.383-9.5 20.383-2.481 5.314-.226 8.745 6.4 8.745h19.293c.339-.746 2.208-4.733 2.55-5.475H51.501c-3.2 0-3.809-.7-2.519-3.46 0 0 1.816-3.894 3.854-8.257H75.72c.34-.744 2.2-4.732 2.552-5.475H55.388c1.574-3.377 2.866-6.135 3.01-6.462"/><path d="M108.461 28.851c-4.982 10.7-14 13.3-25.162 12.982-.343.745-2.127 4.49-2.452 5.2 19.055.861 27.752-4.972 33.907-18.181l2.183-4.675h-6.3l-2.179 4.675M8.98 3.348c0 1.207.4 2.342 2.35 3.942l.8.653c1.558 1.29 1.985 1.956 1.985 3.086a2.235 2.235 0 01-2.4 2.222 2.321 2.321 0 01-2.493-1.7 3.074 3.074 0 01-.049-.628c0-.1 0-.325-.252-.325s-.263.269-.276.4l-.016.216c-.026.358-.075.957-.075 1.675 0 .482.019.626.34.787a5.491 5.491 0 002.431.491 4.778 4.778 0 002.747-.768 3.8 3.8 0 001.559-3.045c0-1.387-.431-2.528-2.633-4.265l-.493-.385c-1.7-1.389-2.11-1.951-2.11-2.869A1.883 1.883 0 0112.44.911c1.463 0 1.953.609 2.1.87a2.93 2.93 0 01.213.835c.019.134.044.351.271.351.257 0 .257-.351.257-.542 0-.942.043-1.5.062-1.739l.011-.137c0-.166-.107-.254-.308-.254a2.588 2.588 0 01-.6-.087A7.189 7.189 0 0012.78.03c-2.271 0-3.8 1.335-3.8 3.318M30.599.398c.009.009-4.687 10.79-4.709 10.846-.029-.033-4.9-10.868-4.9-10.868-.07-.164-.164-.34-.363-.34-.24 0-.288.294-.31.421L19.13 12.072c-.061.622-.116 1.207-.545 1.3a1.677 1.677 0 01-.465.046c-.165 0-.295.094-.295.216s.051.285.406.285c.285 0 .805-.027 1.016-.037l.277-.011h.409c.2 0 .783.037 1.2.048.138.006.424 0 .424-.285a.246.246 0 00-.266-.217 2.384 2.384 0 01-.583-.076.438.438 0 01-.333-.431c0-.3 0-.614.015-.9 0 0 .612-7.811.628-7.811-.044 0 3.973 8.866 3.973 8.866.328.674.4.813.591.813.214 0 .277-.147.543-.753.008 0 3.973-9.1 3.973-9.1l.753 8.724c.009.108.008.2.015.277.009.149.009.312-.026.327a.237.237 0 00-.172.229c0 .227.26.285.578.3.639.037 2.4.026 2.75.026.442 0 .474-.218.474-.285s-.022-.211-.258-.211a3.154 3.154 0 01-1.027-.155c-.638-.223-.738-1.19-.8-1.771L31.289.626c-.024-.247-.06-.589-.324-.589-.218 0-.311.225-.366.362M39.072 1.184c0-.026 0-.039.112-.066a4.026 4.026 0 01.82-.085c1.667 0 2.257 1.507 2.257 2.914a2.614 2.614 0 01-.6 1.7c-.337.384-.535.415-1.514.415a6.454 6.454 0 01-1.041-.068.068.068 0 01-.034-.062V1.183M38.927.31l-.661.021-.231-.01a50.498 50.498 0 00-1.769-.044c-.1 0-.41 0-.41.271a.25.25 0 00.271.236 3.32 3.32 0 01.569.05c.483.1.624.294.661.89.035.562.035 1.061.035 3.814v3.119c0 1.659 0 3.09-.087 3.827-.078.53-.159.811-.409.861a2.5 2.5 0 01-.506.066.245.245 0 00-.274.236c0 .273.314.273.414.273.38 0 .934-.031 1.331-.048h.4l.683.031c.595.034 1.413.075 1.675.075 3.049 0 4.642-2.006 4.642-3.992a4.111 4.111 0 00-2.956-3.791 3.692 3.692 0 001.563-3.131c0-1.032-.77-2.787-3.669-2.787-.476 0-.918.019-1.271.033m.689 12.582c-.464-.223-.475-.391-.523-1.2v-.07c-.019-.264-.019-2.487-.019-3.816v-1c.741 0 1.193.009 1.335.032h.013a2.763 2.763 0 011.4.491 4.133 4.133 0 011.658 3.431 2.263 2.263 0 01-2.363 2.384 4.087 4.087 0 01-1.5-.255M49.608 2.078a7.533 7.533 0 00-1.735 4.965 7.114 7.114 0 002.168 5.273 7.416 7.416 0 005.558 1.794 8.946 8.946 0 002.994-.5.707.707 0 00.48-.605 20.053 20.053 0 00.3-2.312c-.009-.349-.181-.384-.253-.382-.231.008-.25.234-.282.378a3.745 3.745 0 01-.54 1.443 3.459 3.459 0 01-2.733.915 5.485 5.485 0 01-4.232-1.811 6.839 6.839 0 01-1.736-4.385 6.186 6.186 0 011.318-4.57A4.842 4.842 0 0154.562.927a5.118 5.118 0 013.222.889 2.519 2.519 0 01.694 1.7c.023.209.015.5.273.49s.257-.3.263-.5v-.624c0-.385-.009-.861 0-1.2.009-.386.029-.614.043-.765l.012-.234c-.008-.193-.118-.296-.336-.313a12.529 12.529 0 01-1.6-.205l-.067-.01A13.342 13.342 0 0054.653 0a6.559 6.559 0 00-5.045 2.073"/></g></svg>