<svg version="1.1" id="レイヤー_1" xmlns="http://www.w3.org/2000/svg" x="0" y="0" viewBox="0 0 220.3 62.4" style="enable-background:new 0 0 220.3 62.4" xml:space="preserve"><style>.st0{fill:none}.st1{fill:#094}</style><path class="st0" d="M220.3 62.4H0V0h220.3v31.2z"/><path class="st0" d="M207.1 55.8h-194V6.6h194v24.6z"/><path class="st0" d="M65.7 55.8H13.2V6.6h52.5v24.6z"/><path class="st1" d="M43.5 10.7c6.1-2.7 11.3-3.1 13.7-.4 2.9 3.3.9 10.2-4.5 17.5h2.6l-2.8 4.9v.1l2.3 5C64.6 26.9 68.6 15 63.6 9.5 59.7 5.1 51.2 5.9 42 10.7h1.5c-.1 0 0 0 0 0zM43 38.9v7.6c0 .7-.5 1.2-1.2 1.2h-8.4c-.7 0-1.2-.4-1.2-1.2v-1.1c-6.9 3.5-12.8 4.2-15.4 1.3-2.7-3.1-1.2-9.3 3.5-16.1v-1.1c-6.9 9.4-9.2 18.8-5 23.5 5.7 6.3 21.2 1.7 34.5-10.3 1.4-1.3 2.7-2.5 3.9-3.8H43c.1-.1 0-.1 0 0zm-8.7-10.3L37 38h-3.2l-.4-1.7H31l-.4 1.7h-2.3l2.7-9.4h3.3zm-1.2 5.9-.7-3.1h-.1l-.8 3.1h1.6zm-6.7-1.4c1-.3 1.5-1 1.5-2.1 0-1.7-.9-2.5-2.7-2.5h-4.1V38h4.2c1.6 0 2.8-.6 2.8-2.5 0-1.3-.3-2.1-1.7-2.4zm-2.5-2.9h.6c.5 0 .8.5.8 1.1 0 .8-.4 1.1-.8 1.1h-.7v-2.2zm.5 6.1h-.5V34h.6c.7 0 1 .4 1 1.2-.1 1.1-.8 1.1-1.1 1.1zm29.4-7.7h-2.9l-1.5 2.8v-2.8h-2.9V38h2.9v-3.6l1.5 3.6h3l-2.5-5.3 2.4-4.1zm-11.5 0v4.9l-1.9-4.9h-2.7V38h2.6v-4.9l1.8 4.9h2.7v-9.4h-2.5z"/><path d="M44.2 27.8h-9.3c2.3-6.4 6.7-12.3 15.4-16.1.3-.1.6-.2.8-.1.2.1.2.3.2.7v7.4c0 .4 0 .6-.2.9-.2.3-.4.4-.7.6-3.2 1.5-5.1 3.8-6.2 6.6zM32.8 38.9c-.1 2-.2 3.9-.2 5.7v1.9c0 .5.3.8.8.8h8.4c.5 0 .8-.3.8-.8v-7.6h-9.8c0-.1 0-.1 0 0z" style="fill:#e60012"/><path d="M36.7 20.2H25.8c-.5 0-.8-.3-.8-.8v-7.2c0-.5.3-.8.8-.8h20.5c.5 0 .8 0 .8.3.1.3-.2.5-.5.7-3.2 1.8-6 4.2-8.2 7-.3.4-.5.6-.7.7-.3.1-.5.1-1 .1z" style="fill:#f08300"/><path class="st0" d="M207.1 44.3H75.6V18h131.5v13.2z"/><path class="st1" d="M141.6 21s.1 0 0 0l.1 4.7s0 .1-.1.1h-10s-.1 0-.1-.1V21s0-.1.1-.1h10zm6.8 4c-.2 9.5-4.4 13.8-13.5 13.8h-3s-.1 0-.1.1v5.4s0 .1.1.1h4.1c11.3 0 17.2-6.5 17.3-19.3l-4.9-.1c0-.1 0 0 0 0zM124 21l-.1 4.7s0 .1.1.1h2.6s.1 0 .1-.1V21s0-.1-.1-.1H124zm3.7 0s-.1 0 0 0l-.1 4.7s0 .1.1.1h2.6s.1 0 .1-.1V21s0-.1-.1-.1h-2.6zm-25.9 0-.1 4.7s0 .1.1.1h15.4v4.5c0 6.3-4 9.3-12.5 9.3 0 0-.1 0-.1.1v4.7s0 .1.1.1h2.3c10.4 0 16.1-5.4 16.1-15.1v-8.2s0-.1-.1-.1h-21.2zm-23.3-3s0 .1 0 0l-.1 3h-2.8s-.1 0-.1.1v4.6s0 .1.1.1h2.8v8.5c0 7.1 3.6 10.1 12.2 10.1h7.5s.1 0 .1-.1v-4.7s0-.1-.1-.1H89c-3.1 0-4.9-1.6-4.9-4.4v-9.5h10.4c0 3.6-1.8 5.6-5.2 5.9 0 0-.1 0-.1.1V35s0 .1.1.1h1.4c5.2 0 8.9-4 8.9-9.6v-4.4s0-.1-.1-.1H84.2v-2.9s0-.1-.1-.1h-5.6zm114.4 1.9c-.1 0-.1 0-.1.1v3.9c0 .1 0 .1.1.1h13.5c.1 0 .1 0 .1-.1V20c0-.1 0-.1-.1-.1h-13.5zm-5.4 6.2s0 .1 0 0c-1.4 2.9-3.2 5.1-5.3 6.6v3.6c0 .1 0 .1.1.1.9-.3 2-.8 2.9-1.3v9.2c0 .1 0 .1.1.1h3.7c.1 0 .1 0 .1-.1V31.6c.8-1 1.5-2 2.2-3.3v3c0 .1 0 .1.1.1h9.3v8c0 .7-.5 1.2-1.2 1.2h-3.1c-.1 0-.1 0-.1.1v3.6c0 .1 0 .1.1.1h5.5c2 0 2.9-1.2 2.9-2.9V31.3h2.2c.1 0 .1 0 .1-.1v-4c0-.1 0-.1-.1-.1h-15.3l.3-.9c0-.1 0-.1-.1-.1h-4.4zm-.7-6.8c-.1 0-.1 0-.1.1-.6 2.5-1.8 4.1-4.1 5.4-.1 0-.1 0-.1.1v3.4c0 .1 0 .1.1.1 4-1.2 7.5-4.9 8.7-8.9 0-.1 0-.1-.1-.1h-4.4zm-7 .6c.1 0 .1 0 0 0l.1 12.4c0 .1 0 .1-.1.1h-4.9c.2.9.5 1.6.9 2.5.3-.4.5-.8.7-1.2 0 0 0-.1.1-.1h3.4c.1 0 .1 0 .1.1-.4 1.2-1.4 2.5-2.8 3.4.8 1 1.8 1.8 2.9 2.3v5.1c0 .1-.1.1-.1.1-1.9-.8-3.7-2.4-5.1-4.5v2.3c-2 1.1-4.5 1.8-7.1 2-.1 0-.1 0-.1-.1V20c0-.1 0-.1.1-.1h11.9zm-8.2 4.8h4.6v-1.8h-4.6v1.8zm0 4.4h4.6v-1.8h-4.6v1.8zm0 10.8c.8-.1 2-.4 2.8-.7-1.1-2-1.8-4.2-2.2-6.8h-.6v7.5zm-15.4-5.1c-.1 0-.1 0-.1.1.4 1.2.6 2.8.6 4.2 0 .1 0 .1.1.1h2.3c.1 0 .1 0 .1-.1 0-1.6-.1-3.4-.2-4.2 0-.1 0-.1-.1-.1h-2.7zm8.1 0c-.1 0-.1 0-.1.1 0 1-.1 2.2-.3 3 0 .1 0 .1.1.1h2c.1 0 .1 0 .1-.1.2-.7.5-1.8.5-3.1 0-.1 0-.1-.1-.1h-2.2zM160 19.3c-.1 0-.1 0-.1.1-.9 2.1-2.1 3.6-4.2 5.1-.1 0-.1.1-.1.1v3.3c0 .1 0 .1.1.1.5-.2.9-.3 1.4-.6v1.5c0 .1 0 .1.1.1h2.9v1.6h-3.9c-.1 0-.1 0-.1.1v2.9c0 .1 0 .1.1.1h3.9V40c-1.7.3-3.1.4-4.4.5-.1 0-.1 0-.1.1v3.7c0 .1 0 .1.2.1 4-.4 8-1.4 11.2-2.9.1 0 .1-.1.1-.1v-2.9c0-.1 0-.1-.1-.1-1.1.3-2.4.7-3.5 1v-5.7h3.3c.1 0 .1 0 .1-.1v-2.9c0-.1 0-.1-.1-.1h-3.3V29h3.3c.1 0 .1 0 .1-.1V26c0-.1 0-.1-.1-.1h-6.9c1.1-.9 2.1-1.9 2.7-2.9.4.6.8 1.2 1.1 1.9 0 .1.1.1.1.1h3.5c.2 0 .2 0 .1-.2-.6-1.7-2-4-3.7-5.4h-.1c-.3-.1-3.6-.1-3.6-.1z"/></svg>